<?xml version="1.0" ?><svg data-name="Layer 1" id="Layer_1" viewBox="0 0 128 128" xmlns="http://www.w3.org/2000/svg"><title/><path d="M64,50.4A13.6,13.6,0,1,0,77.6,64,13.61421,13.61421,0,0,0,64,50.4Z"/><path d="M99.39,2H28.6A26.63949,26.63949,0,0,0,2,28.6V99.39A26.64162,26.64162,0,0,0,28.6,126H99.39A26.64374,26.64374,0,0,0,126,99.39V28.6A26.64162,26.64162,0,0,0,99.39,2ZM64,91.46A27.46,27.46,0,1,1,91.46,64,27.493,27.493,0,0,1,64,91.46ZM98.68,39.14a9.785,9.785,0,1,1,9.79-9.79A9.79883,9.79883,0,0,1,98.68,39.14Z"/></svg>