<?xml version="1.0" ?><svg data-name="Layer 1" id="Layer_1" viewBox="0 0 128 128" xmlns="http://www.w3.org/2000/svg"><title/><path d="M115.44,2H12.56A10.68006,10.68006,0,0,0,1.89,12.67V115.33A10.68011,10.68011,0,0,0,12.56,126H115.44a10.68011,10.68011,0,0,0,10.67-10.67V12.67A10.68006,10.68006,0,0,0,115.44,2ZM102.6,39.46a13.24477,13.24477,0,0,1-7.06,9.33,16.92324,16.92324,0,0,1-1.72.67,42.50293,42.50293,0,0,1-.64,10.81,44.41571,44.41571,0,0,1-66.71,30.1L21.9,87.59l5.34-.35a41.52986,41.52986,0,0,0,17.02-4.93A18.0694,18.0694,0,0,1,31.9,71.58L30.78,68.82l2.93994.45h.03a18.36019,18.36019,0,0,1-7.3-14.31l-.03-2.92,2.54,1.42c.45.25.91.48,1.37.68005a17.97257,17.97257,0,0,1-1.56-19.46l1.34-2.48,1.56,2.34a36.47825,36.47825,0,0,0,4.52,5.5,36.92315,36.92315,0,0,0,9.88,7.06l.13.05a37.59449,37.59449,0,0,0,13.38,3.52c-.01-.3-.02-.61-.02-.92a18.52168,18.52168,0,0,1,26.57-16.7,23.30164,23.30164,0,0,1,2.27,1.28,7.366,7.366,0,0,0,4.03,1.54,7.88786,7.88786,0,0,0,4.82-1.62c.07-.06.14-.13.22-.21l4.29-4.29-1.49,6.03a13.59471,13.59471,0,0,1-1.26,2.96c.14-.13.27-.27.4-.4l.7-.84,3.71-4.5Z"/></svg>